# Blender v2.77 (sub 0) OBJ File: 'House01_3rd_blender.blend'
# www.blender.org
mtllib House01_3rd_blender.mtl
o 1_1
v 7.480230 6.242695 5.156195
v 6.458611 6.242695 6.260100
v 7.480230 6.039992 5.156195
v 6.458611 6.039992 6.260100
v 7.480230 6.242696 -4.041543
v 7.480230 6.039994 -4.041543
v 5.197929 6.242697 -6.507667
v 5.197929 6.039994 -6.507667
v 1.793891 6.242697 -6.507667
v 1.793891 6.039994 -6.507667
v -0.249352 6.242696 -4.299857
v -0.249352 6.039994 -4.299857
v -7.639755 6.242696 -4.299857
v -7.639755 6.039994 -4.299857
v -7.639755 6.242695 6.260100
v -7.639755 6.039992 6.260100
v -6.379075 6.242694 7.622319
v -6.379075 6.039992 7.622319
v 0.089827 6.242694 7.622319
v 0.089827 6.039992 7.622319
v 1.350507 6.242695 6.260100
v 1.350507 6.039992 6.260100
v 3.583769 10.108232 0.633496
v 2.883960 9.402828 1.661232
v -1.834907 9.402828 1.661232
v -4.454341 9.402828 1.661232
v 3.583769 10.108232 -2.297372
vt 75.6000 13.3441
vt 70.4919 7.8246
vt 75.6000 12.3306
vt 70.4919 6.8111
vt 75.6000 59.3329
vt 75.6000 58.3194
vt 64.1885 71.6635
vt 64.1885 70.6500
vt 47.1683 71.6635
vt 47.1683 70.6500
vt 36.9520 60.6245
vt 36.9520 59.6109
vt 0.0000 60.6245
vt 0.0000 59.6109
vt 0.0000 7.8246
vt 0.0000 6.8111
vt 6.3034 1.0135
vt 6.3034 0.0000
vt 38.6479 1.0135
vt 38.6479 0.0000
vt 44.9513 7.8246
vt 44.9513 6.8111
vt 56.1177 55.2854
vt 52.6186 46.6197
vt 29.0243 46.6197
vt 15.9271 46.6197
vt 56.1177 69.9397
vn 0.6792 0.0000 0.7339
vn 1.0000 0.0000 0.0000
vn 0.6792 -0.0000 -0.7339
vn 0.0000 0.0000 -1.0000
vn -0.6792 0.0000 -0.7339
vn -1.0000 0.0000 0.0000
vn -0.6792 -0.0000 0.7339
vn 0.0000 0.0000 1.0000
vn 0.0000 -1.0000 0.0000
vn 0.0702 0.7933 0.6048
vn 0.2159 0.8159 0.5363
vn 0.3953 0.8132 0.4271
vn 0.0000 0.7751 0.6319
vn 0.1644 0.8255 0.5400
vn 0.0308 0.8294 0.5578
vn 0.1774 0.8618 0.4751
vn -0.0460 0.8533 0.5193
vn -0.1773 0.8619 0.4751
vn -0.3642 0.8441 0.3935
vn 0.0000 0.8465 -0.5324
vn -0.7157 0.6984 0.0000
vn -0.7099 0.7043 -0.0000
vn -0.4843 0.7011 -0.5233
vn 0.0000 0.6763 -0.7366
vn 0.4917 0.6899 -0.5313
vn 0.7099 0.7043 0.0000
usemtl default
s 1
f 1/1/1 2/2/1 3/3/1
f 3/3/1 2/2/1 4/4/1
f 5/5/2 1/1/2 6/6/2
f 6/6/2 1/1/2 3/3/2
f 7/7/3 5/5/3 8/8/3
f 8/8/3 5/5/3 6/6/3
f 9/9/4 7/7/4 10/10/4
f 10/10/4 7/7/4 8/8/4
f 11/11/5 9/9/5 12/12/5
f 12/12/5 9/9/5 10/10/5
f 13/13/4 11/11/4 14/14/4
f 14/14/4 11/11/4 12/12/4
f 15/15/6 13/13/6 16/16/6
f 16/16/6 13/13/6 14/14/6
f 17/17/7 15/15/7 18/18/7
f 18/18/7 15/15/7 16/16/7
f 19/19/8 17/17/8 20/20/8
f 20/20/8 17/17/8 18/18/8
f 21/21/1 19/19/1 22/22/1
f 22/22/1 19/19/1 20/20/1
f 2/2/8 21/21/8 4/4/8
f 4/4/8 21/21/8 22/22/8
f 4/4/9 22/22/9 3/3/9
f 3/3/9 22/22/9 12/12/9
f 6/6/9 12/12/9 10/10/9
f 8/8/9 6/6/9 10/10/9
f 20/20/9 18/18/9 22/22/9
f 22/22/9 18/18/9 16/16/9
f 12/12/9 16/16/9 14/14/9
f 12/12/9 22/22/9 16/16/9
f 3/3/9 12/12/9 6/6/9
f 23/23/10 2/2/11 1/1/12
f 23/23/10 24/24/13 2/2/11
f 2/2/11 24/24/13 21/21/14
f 21/21/14 24/24/13 25/25/15
f 19/19/16 21/21/14 25/25/15
f 25/25/15 26/26/17 19/19/16
f 19/19/16 26/26/17 17/17/18
f 15/15/19 17/17/18 26/26/17
f 24/24/20 11/11/20 25/25/20
f 25/25/20 11/11/20 26/26/20
f 26/26/20 11/11/20 13/13/20
f 11/11/21 24/24/21 27/27/21
f 27/27/21 24/24/21 23/23/21
f 15/15/22 26/26/22 13/13/22
f 9/9/23 11/11/23 27/27/23
f 9/9/24 27/27/24 7/7/24
f 27/27/25 5/5/25 7/7/25
f 1/1/26 5/5/26 23/23/26
f 23/23/26 5/5/26 27/27/26
