# Alias OBJ Model File
# Exported from SketchUp, (c) 2000-2012 Trimble Navigation Limited
# File units = millimeters

mtllib house.mtl

g Mesh1 OuterShell Model

usemtl FrontColor
v 5000 4000 7.21911e-013
vt -393.701 -136.949
vn -4.17494e-017 0.948683 -0.316228
v 5000 3000 -3000
vt -393.701 -261.448
v -5000 3000 -3000
vt -4.15821e-014 -261.448
v -5000 4000 7.21911e-013
vt -5.44105e-014 -136.949
f 1/1/1 2/2/1 3/3/1 4/4/1 

v 5000 0 -3000
vt 314.961 2.03012e-014
vn 1 -5.15651e-017 -1.20319e-016
vt 314.961 118.11
vt 196.85 157.48
v 5000 3000 3000
vt 78.7402 118.11
v 5000 0 3000
vt 78.7402 2.03012e-014
f 5/5/2 2/6/2 1/7/2 6/8/2 7/9/2 

v -5000 0 -3000
vt -3.97904e-014 -1.32635e-013
vn -1.26334e-016 4.21115e-016 -1
vt -3.97904e-014 118.11
vt -393.701 118.11
vt -393.701 -1.32635e-013
f 8/10/3 3/11/3 2/12/3 5/13/3 

vt -314.961 3.0397e-030
vn -1 1.20319e-016 8.02124e-017
v -5000 0 3000
vt -78.7402 7.59924e-031
v -5000 3000 3000
vt -78.7402 118.11
vt -196.85 157.48
vt -314.961 118.11
f 8/14/4 9/15/4 10/16/4 4/17/4 3/18/4 

v 2740 0 3000
vt -304.724 78.7402
vn 0 -1 -0
v 2740 0 5000
vt -304.724 0
v -2000 0 5000
vt -118.11 0
v -2000 0 3000
vt -118.11 78.7402
vt 0 78.7402
vt 0 314.961
vt -393.701 314.961
vt -393.701 78.7402
f 11/19/5 12/20/5 13/21/5 14/22/5 9/23/5 8/24/5 5/25/5 7/26/5 

vt 5.4996e-014 3.6664e-014
vn 1 -1.20319e-016 1.80478e-016
vt 78.7402 3.6664e-014
v 2740 3000 3000
v 2740 3000 5000
vt 5.4996e-014 118.11
f 12/27/6 11/28/6 15/8/6 16/29/6 

vt 393.701 118.11
vn 0 0 1
vt 304.724 118.11
vt 304.724 0
vt 393.701 0
f 6/30/7 15/31/7 11/32/7 7/33/7 

vt 3.54894e-014 112.049
vn 2.83843e-017 0.948683 0.316228
v -2000 3000 3000
vt 118.11 112.049
v 0 3500 1500
vt 196.85 174.299
vt 304.724 112.049
vt 393.701 112.049
vt 393.701 236.548
vt 4.60908e-014 236.548
f 10/34/8 17/35/8 18/36/8 15/37/8 6/38/8 1/39/8 4/40/8 

vt -9.4739e-015 6.77184e-030
vn -1.20319e-016 8.60023e-032 1
vt 118.11 6.77184e-030
vt 118.11 118.11
vt 1.89478e-014 118.11
f 9/41/9 14/42/9 17/43/9 10/44/9 

v -2000 3000 5000
vt -1.38556e-013 118.11
vn -1 7.82071e-016 -1.17311e-015
vt -78.7402 9.23706e-014
vt -1.38556e-013 9.23706e-014
f 19/45/10 17/16/10 14/46/10 13/47/10 

v 0 3500 5000
vt -9.39178e-015 224.393
vn -0.242536 0.970143 -1.15714e-017
vt -137.795 224.393
vt -78.7402 143.23
vt -5.63507e-015 143.23
f 20/48/11 18/49/11 17/50/11 19/51/11 

vt 4.24481e-014 -278.571
vn 0.179517 0.983755 2.50068e-017
vt 78.7402 -278.571
vt 137.795 -168.916
vt 2.74213e-014 -168.916
f 16/52/12 15/53/12 18/54/12 20/55/12 

vt 196.85 137.795
vt 118.11 0
f 20/56/7 19/43/7 13/57/7 12/32/7 16/31/7 

